<mxfile host="www.draw.io" modified="2019-10-30T09:35:47.807Z" agent="Mozilla/5.0 (Macintosh; Intel Mac OS X 10_14_6) AppleWebKit/537.36 (KHTML, like Gecko) Chrome/77.0.3865.120 Safari/537.36" etag="ANlV4RTMDsFzC_PH63MH" version="12.1.8" type="github" pages="1">
  <diagram id="uakVdeDMaknO-sdMOJrC" name="Page-1">
    <mxGraphModel dx="1487" dy="593" grid="0" gridSize="10" guides="1" tooltips="1" connect="1" arrows="1" fold="1" page="0" pageScale="1" pageWidth="827" pageHeight="1169" math="0" shadow="0">
      <root>
        <mxCell id="0"/>
        <mxCell id="1" parent="0"/>
        <mxCell id="Uq3KH3kaq2MuA7tBNWyy-7" value="" style="rounded=1;whiteSpace=wrap;html=1;" vertex="1" parent="1">
          <mxGeometry x="-224" y="48" width="413" height="101" as="geometry"/>
        </mxCell>
        <mxCell id="Uq3KH3kaq2MuA7tBNWyy-9" value="栈帧" style="rounded=0;whiteSpace=wrap;html=1;" vertex="1" parent="1">
          <mxGeometry x="24.5" y="124" width="66" height="152" as="geometry"/>
        </mxCell>
        <mxCell id="Uq3KH3kaq2MuA7tBNWyy-1" value="栈帧" style="rounded=0;whiteSpace=wrap;html=1;" vertex="1" parent="1">
          <mxGeometry x="-138" y="124" width="66" height="152" as="geometry"/>
        </mxCell>
        <mxCell id="Uq3KH3kaq2MuA7tBNWyy-2" value="oopMap&lt;br&gt;栈变量-&amp;gt;堆空间对象" style="rounded=1;whiteSpace=wrap;html=1;" vertex="1" parent="1">
          <mxGeometry x="-110" y="80" width="120" height="60" as="geometry"/>
        </mxCell>
        <mxCell id="Uq3KH3kaq2MuA7tBNWyy-4" value="" style="endArrow=classic;html=1;" edge="1" parent="1">
          <mxGeometry width="50" height="50" relative="1" as="geometry">
            <mxPoint x="-185" y="95" as="sourcePoint"/>
            <mxPoint x="-110" y="95" as="targetPoint"/>
          </mxGeometry>
        </mxCell>
        <mxCell id="Uq3KH3kaq2MuA7tBNWyy-6" value="到达safePoint时候更新" style="text;html=1;resizable=0;points=[];autosize=1;align=left;verticalAlign=top;spacingTop=-4;" vertex="1" parent="1">
          <mxGeometry x="-193" y="59" width="132" height="14" as="geometry"/>
        </mxCell>
        <mxCell id="Uq3KH3kaq2MuA7tBNWyy-8" value="oopMap&lt;br&gt;栈变量-&amp;gt;堆空间对象" style="rounded=1;whiteSpace=wrap;html=1;" vertex="1" parent="1">
          <mxGeometry x="40.5" y="80" width="120" height="60" as="geometry"/>
        </mxCell>
        <mxCell id="Uq3KH3kaq2MuA7tBNWyy-10" value="GC Roots&amp;nbsp; &amp;nbsp;核心思想空间换时间" style="text;html=1;resizable=0;points=[];autosize=1;align=left;verticalAlign=top;spacingTop=-4;" vertex="1" parent="1">
          <mxGeometry x="-169.5" y="27" width="181" height="14" as="geometry"/>
        </mxCell>
      </root>
    </mxGraphModel>
  </diagram>
</mxfile>
